# xmcd
#
# Track frame offsets:
#	150
#	15770
#	35389
#	52061
#	63930
#	76271
#	95945
#	116432
#	136334
#	153960
#	166148
#
# Disc length: 2362 seconds
#
# Revision: 1
# Processed by: cddbd v1.5.2PL0 Copyright (c) Steve Scherf et al.
# Submitted via: audiograbber 1.83.01
#
DISCID=7f09380b
DTITLE=Blowin Up  - Blowin Up 02
DYEAR=1900
DGENRE=
TTITLE0=Cigaretts And Beer Tonight - Brett Williams
TTITLE1=Don´t Even Think About It  - Big Al Downing
TTITLE2=Turnin´ Off A Memorie  - Doc Holliday
TTITLE3=Rainy Day Feeling  - Joe Washington and The Fortunes
TTITLE4=Let The Best Man Win - Narvel Felts
TTITLE5=This Is Country - Johnnie Robinson
TTITLE6=Mr Casanovas  - J J Rawlings
TTITLE7=Live It Up  - Won 8d
TTITLE8=Say Pirate  - The Pirate
TTITLE9=Deep As I Go  - Little Correy
TTITLE10=Revange  - Final Obession
EXTD=
EXTT0=
EXTT1=
EXTT2=
EXTT3=
EXTT4=
EXTT5=
EXTT6=
EXTT7=
EXTT8=
EXTT9=
EXTT10=
PLAYORDER=
